<svg xmlns="http://www.w3.org/2000/svg"  viewBox="0 0 100 100" width="100px" height="100px"><path fill="#c7ede6" d="M87.215,56.71C88.35,54.555,89,52.105,89,49.5c0-6.621-4.159-12.257-10.001-14.478	C78.999,35.015,79,35.008,79,35c0-11.598-9.402-21-21-21c-9.784,0-17.981,6.701-20.313,15.757C36.211,29.272,34.638,29,33,29	c-7.692,0-14.023,5.793-14.89,13.252C12.906,43.353,9,47.969,9,53.5C9,59.851,14.149,65,20.5,65c0.177,0,0.352-0.012,0.526-0.022	C21.022,65.153,21,65.324,21,65.5C21,76.822,30.178,86,41.5,86c6.437,0,12.175-2.972,15.934-7.614C59.612,80.611,62.64,82,66,82	c4.65,0,8.674-2.65,10.666-6.518C77.718,75.817,78.837,76,80,76c6.075,0,11-4.925,11-11C91,61.689,89.53,58.727,87.215,56.71z"/><path fill="#fdfcef" d="M79.875,60.5c0,0,3.64,0,6.125,0s4.5-2.015,4.5-4.5c0-2.333-1.782-4.229-4.055-4.455 C86.467,51.364,86.5,51.187,86.5,51c0-2.485-2.015-4.5-4.5-4.5c-1.438,0-2.703,0.686-3.527,1.736 C78.333,45.6,76.171,43.5,73.5,43.5c-2.761,0-5,2.239-5,5c0,0.446,0.077,0.87,0.187,1.282C68.045,49.005,67.086,48.5,66,48.5 c-1.781,0-3.234,1.335-3.455,3.055C62.364,51.533,62.187,51.5,62,51.5c-2.485,0-4.5,2.015-4.5,4.5s2.015,4.5,4.5,4.5s9.5,0,9.5,0 h5.375V61h3V60.5z"/><path fill="#472b29" d="M73.5,43c-3.033,0-5.5,2.467-5.5,5.5c0,0.016,0,0.031,0,0.047C67.398,48.192,66.71,48,66,48 c-1.831,0-3.411,1.261-3.858,3.005C62.095,51.002,62.048,51,62,51c-2.757,0-5,2.243-5,5s2.243,5,5,5h14.875 c0.276,0,0.5-0.224,0.5-0.5s-0.224-0.5-0.5-0.5H62c-2.206,0-4-1.794-4-4s1.794-4,4-4c0.117,0,0.23,0.017,0.343,0.032l0.141,0.019 c0.021,0.003,0.041,0.004,0.062,0.004c0.246,0,0.462-0.185,0.495-0.437C63.232,50.125,64.504,49,66,49 c0.885,0,1.723,0.401,2.301,1.1c0.098,0.118,0.241,0.182,0.386,0.182c0.078,0,0.156-0.018,0.228-0.056 c0.209-0.107,0.314-0.346,0.254-0.573C69.054,49.218,69,48.852,69,48.5c0-2.481,2.019-4.5,4.5-4.5c2.381,0,4.347,1.872,4.474,4.263 c0.011,0.208,0.15,0.387,0.349,0.45c0.05,0.016,0.101,0.024,0.152,0.024c0.15,0,0.296-0.069,0.392-0.192 C79.638,47.563,80.779,47,82,47c2.206,0,4,1.794,4,4c0,0.117-0.017,0.23-0.032,0.343l-0.019,0.141 c-0.016,0.134,0.022,0.268,0.106,0.373c0.084,0.105,0.207,0.172,0.34,0.185C88.451,52.247,90,53.949,90,56c0,2.206-1.794,4-4,4 h-6.125c-0.276,0-0.5,0.224-0.5,0.5s0.224,0.5,0.5,0.5H86c2.757,0,5-2.243,5-5c0-2.397-1.689-4.413-4.003-4.877 C86.999,51.082,87,51.041,87,51c0-2.757-2.243-5-5-5c-1.176,0-2.293,0.416-3.183,1.164C78.219,44.76,76.055,43,73.5,43L73.5,43z"/><path fill="#472b29" d="M72,50c-1.403,0-2.609,0.999-2.913,2.341C68.72,52.119,68.301,52,67.875,52 c-1.202,0-2.198,0.897-2.353,2.068C65.319,54.022,65.126,54,64.938,54c-1.529,0-2.811,1.2-2.918,2.732 C62.01,56.87,62.114,56.99,62.251,57c0.006,0,0.012,0,0.018,0c0.13,0,0.24-0.101,0.249-0.232c0.089-1.271,1.151-2.268,2.419-2.268 c0.229,0,0.47,0.042,0.738,0.127c0.022,0.007,0.045,0.01,0.067,0.01c0.055,0,0.11-0.02,0.156-0.054 C65.962,54.537,66,54.455,66,54.375c0-1.034,0.841-1.875,1.875-1.875c0.447,0,0.885,0.168,1.231,0.473 c0.047,0.041,0.106,0.063,0.165,0.063c0.032,0,0.063-0.006,0.093-0.019c0.088-0.035,0.148-0.117,0.155-0.212 C69.623,51.512,70.712,50.5,72,50.5c0.208,0,0.425,0.034,0.682,0.107c0.023,0.007,0.047,0.01,0.07,0.01 c0.109,0,0.207-0.073,0.239-0.182c0.038-0.133-0.039-0.271-0.172-0.309C72.517,50.04,72.256,50,72,50L72,50z"/><path fill="#472b29" d="M85.883,51.5c-1.326,0-2.508,0.897-2.874,2.182c-0.038,0.133,0.039,0.271,0.172,0.309 C83.205,53.997,83.228,54,83.25,54c0.109,0,0.209-0.072,0.24-0.182C83.795,52.748,84.779,52,85.883,52 c0.117,0,0.23,0.014,0.342,0.029c0.012,0.002,0.023,0.003,0.035,0.003c0.121,0,0.229-0.092,0.246-0.217 c0.019-0.137-0.077-0.263-0.214-0.281C86.158,51.516,86.022,51.5,85.883,51.5L85.883,51.5z"/><path fill="#fff" d="M15.405,51H5.5C5.224,51,5,50.776,5,50.5S5.224,50,5.5,50h9.905c0.276,0,0.5,0.224,0.5,0.5 S15.682,51,15.405,51z"/><path fill="#fff" d="M18.5,51h-1c-0.276,0-0.5-0.224-0.5-0.5s0.224-0.5,0.5-0.5h1c0.276,0,0.5,0.224,0.5,0.5 S18.777,51,18.5,51z"/><path fill="#fff" d="M23.491,53H14.5c-0.276,0-0.5-0.224-0.5-0.5s0.224-0.5,0.5-0.5h8.991c0.276,0,0.5,0.224,0.5,0.5 S23.767,53,23.491,53z"/><path fill="#fff" d="M12.5,53h-1c-0.276,0-0.5-0.224-0.5-0.5s0.224-0.5,0.5-0.5h1c0.276,0,0.5,0.224,0.5,0.5 S12.777,53,12.5,53z"/><path fill="#fff" d="M9.5,53h-2C7.224,53,7,52.776,7,52.5S7.224,52,7.5,52h2c0.276,0,0.5,0.224,0.5,0.5S9.777,53,9.5,53z"/><path fill="#fff" d="M15.5,55h-2c-0.276,0-0.5-0.224-0.5-0.5s0.224-0.5,0.5-0.5h2c0.276,0,0.5,0.224,0.5,0.5 S15.776,55,15.5,55z"/><path fill="#fff" d="M18.5,46c-0.177,0-0.823,0-1,0c-0.276,0-0.5,0.224-0.5,0.5c0,0.276,0.224,0.5,0.5,0.5 c0.177,0,0.823,0,1,0c0.276,0,0.5-0.224,0.5-0.5C19,46.224,18.776,46,18.5,46z"/><path fill="#fff" d="M18.5,48c-0.177,0-4.823,0-5,0c-0.276,0-0.5,0.224-0.5,0.5c0,0.276,0.224,0.5,0.5,0.5 c0.177,0,4.823,0,5,0c0.276,0,0.5-0.224,0.5-0.5C19,48.224,18.776,48,18.5,48z"/><path fill="#fff" d="M23.5,50c-0.177,0-2.823,0-3,0c-0.276,0-0.5,0.224-0.5,0.5c0,0.276,0.224,0.5,0.5,0.5 c0.177,0,2.823,0,3,0c0.276,0,0.5-0.224,0.5-0.5C24,50.224,23.776,50,23.5,50z"/><g><path fill="#fff" d="M72.5,24h-10c-0.276,0-0.5-0.224-0.5-0.5s0.224-0.5,0.5-0.5h10c0.276,0,0.5,0.224,0.5,0.5 S72.776,24,72.5,24z"/><path fill="#fff" d="M76.5,24h-2c-0.276,0-0.5-0.224-0.5-0.5s0.224-0.5,0.5-0.5h2c0.276,0,0.5,0.224,0.5,0.5 S76.776,24,76.5,24z"/><path fill="#fff" d="M81.5,26h-10c-0.276,0-0.5-0.224-0.5-0.5s0.224-0.5,0.5-0.5h10c0.276,0,0.5,0.224,0.5,0.5 S81.777,26,81.5,26z"/><path fill="#fff" d="M69.5,26h-1c-0.276,0-0.5-0.224-0.5-0.5s0.224-0.5,0.5-0.5h1c0.276,0,0.5,0.224,0.5,0.5 S69.776,26,69.5,26z"/><path fill="#fff" d="M66.375,26H64.5c-0.276,0-0.5-0.224-0.5-0.5s0.224-0.5,0.5-0.5h1.875c0.276,0,0.5,0.224,0.5,0.5 S66.651,26,66.375,26z"/><path fill="#fff" d="M75.5,22h-5c-0.276,0-0.5-0.224-0.5-0.5s0.224-0.5,0.5-0.5h5c0.276,0,0.5,0.224,0.5,0.5 S75.777,22,75.5,22z"/><path fill="#fff" d="M72.5,28h-2c-0.276,0-0.5-0.224-0.5-0.5s0.224-0.5,0.5-0.5h2c0.276,0,0.5,0.224,0.5,0.5 S72.776,28,72.5,28z"/></g><g><path fill="#fdfcef" d="M35.5,76.5c0,0,1.567,0,3.5,0s3.5-1.567,3.5-3.5c0-1.781-1.335-3.234-3.055-3.455 C39.473,69.366,39.5,69.187,39.5,69c0-1.933-1.567-3.5-3.5-3.5c-1.032,0-1.95,0.455-2.59,1.165 c-0.384-1.808-1.987-3.165-3.91-3.165c-2.209,0-4,1.791-4,4c0,0.191,0.03,0.374,0.056,0.558C25.128,67.714,24.592,67.5,24,67.5 c-1.228,0-2.245,0.887-2.455,2.055C21.366,69.527,21.187,69.5,21,69.5c-1.933,0-3.5,1.567-3.5,3.5s1.567,3.5,3.5,3.5s7.5,0,7.5,0 V77h7V76.5z"/><path fill="#472b29" d="M37.25,72C37.112,72,37,71.888,37,71.75c0-1.223,0.995-2.218,2.218-2.218 c0.034,0.009,0.737-0.001,1.244,0.136c0.133,0.036,0.212,0.173,0.176,0.306c-0.036,0.134-0.173,0.213-0.306,0.176 c-0.444-0.12-1.1-0.12-1.113-0.118c-0.948,0-1.719,0.771-1.719,1.718C37.5,71.888,37.388,72,37.25,72z"/><circle cx="30.5" cy="76.5" r=".5" fill="#472b29"/><path fill="#472b29" d="M39,77h-3.5c-0.276,0-0.5-0.224-0.5-0.5s0.224-0.5,0.5-0.5H39c1.654,0,3-1.346,3-3 c0-1.496-1.125-2.768-2.618-2.959c-0.134-0.018-0.255-0.088-0.336-0.196s-0.115-0.244-0.094-0.377C38.975,69.314,39,69.16,39,69 c0-1.654-1.346-3-3-3c-0.85,0-1.638,0.355-2.219,1c-0.125,0.139-0.321,0.198-0.5,0.148c-0.182-0.049-0.321-0.195-0.36-0.379 C32.58,65.165,31.141,64,29.5,64c-1.93,0-3.5,1.57-3.5,3.5c0,0.143,0.021,0.28,0.041,0.418c0.029,0.203-0.063,0.438-0.242,0.54 c-0.179,0.102-0.396,0.118-0.556-0.01C24.878,68.155,24.449,68,24,68c-0.966,0-1.792,0.691-1.963,1.644 c-0.048,0.267-0.296,0.446-0.569,0.405C21.314,70.025,21.16,70,21,70c-1.654,0-3,1.346-3,3s1.346,3,3,3h7.5 c0.276,0,0.5,0.224,0.5,0.5S28.776,77,28.5,77H21c-2.206,0-4-1.794-4-4s1.794-4,4-4c0.059,0,0.116,0.002,0.174,0.006 C21.588,67.82,22.711,67,24,67c0.349,0,0.689,0.061,1.011,0.18C25.176,64.847,27.126,63,29.5,63c1.831,0,3.466,1.127,4.153,2.774 C34.333,65.276,35.155,65,36,65c2.206,0,4,1.794,4,4c0,0.048-0.001,0.095-0.004,0.142C41.739,69.59,43,71.169,43,73 C43,75.206,41.206,77,39,77z"/><path fill="#472b29" d="M33.5,76c-0.159,0-0.841,0-1,0c-0.276,0-0.5,0.224-0.5,0.5c0,0.276,0.224,0.5,0.5,0.5 c0.159,0,0.841,0,1,0c0.276,0,0.5-0.224,0.5-0.5C34,76.224,33.776,76,33.5,76z"/></g><g><path fill="#beace5" d="M72.3,75.3l-10.5-7.6l1.3,3.6H35.7c-3.314,0-6-2.686-6-6V35.7c0-3.314,2.686-6,6-6h30.6 c3.314,0,6,2.686,6,6V75.3z"/><path fill="#472b29" d="M72.3,76c-0.145,0-0.289-0.045-0.41-0.133l-8.66-6.268l0.528,1.463 c0.078,0.214,0.046,0.453-0.085,0.64C63.541,71.889,63.328,72,63.1,72H35.7c-3.694,0-6.7-3.006-6.7-6.7V35.7 c0-3.694,3.006-6.7,6.7-6.7h30.6c3.694,0,6.7,3.006,6.7,6.7v39.6c0,0.263-0.147,0.504-0.382,0.623C72.518,75.975,72.408,76,72.3,76 z M61.8,67c0.144,0,0.288,0.045,0.41,0.133l9.39,6.796V35.7c0-2.922-2.377-5.3-5.3-5.3H35.7c-2.923,0-5.3,2.377-5.3,5.3v29.6 c0,2.923,2.377,5.3,5.3,5.3h26.402l-0.961-2.662c-0.104-0.288-0.008-0.611,0.237-0.797C61.503,67.047,61.651,67,61.8,67z"/><path fill="#472b29" d="M55.5,69h-12c-0.276,0-0.5-0.224-0.5-0.5s0.224-0.5,0.5-0.5h12c0.276,0,0.5,0.224,0.5,0.5 S55.776,69,55.5,69z"/><path fill="#472b29" d="M69.5,65c-0.276,0-0.5-0.224-0.5-0.5v-5c0-0.276,0.224-0.5,0.5-0.5s0.5,0.224,0.5,0.5v5 C70,64.776,69.776,65,69.5,65z"/><path fill="#472b29" d="M69.5,57c-0.276,0-0.5-0.224-0.5-0.5v-2c0-0.276,0.224-0.5,0.5-0.5s0.5,0.224,0.5,0.5v2 C70,56.776,69.776,57,69.5,57z"/><path fill="#472b29" d="M40.5,69h-5c-1.93,0-3.5-1.57-3.5-3.5v-30c0-1.93,1.57-3.5,3.5-3.5h31c1.93,0,3.5,1.57,3.5,3.5v16 c0,0.276-0.224,0.5-0.5,0.5S69,51.776,69,51.5v-16c0-1.378-1.121-2.5-2.5-2.5h-31c-1.379,0-2.5,1.122-2.5,2.5v30 c0,1.378,1.121,2.5,2.5,2.5h5c0.276,0,0.5,0.224,0.5,0.5S40.776,69,40.5,69z"/><path fill="#fdfcef" d="M60.5,41.8c0,0-2.43-1.47-5.9-1.9l-0.66,1.86c0,0-0.94-0.26-2.94-0.26s-2.94,0.26-2.94,0.26 L47.4,39.9c-3.47,0.43-5.9,1.9-5.9,1.9c-1.9,1.18-4,9.2-4,14c0,0,2.88,3.7,7.3,3.7l1.78-2.63c0,0,2.42,0.63,4.42,0.63 s4.42-0.63,4.42-0.63l1.78,2.63c4.42,0,7.3-3.7,7.3-3.7C64.5,51,62.4,42.98,60.5,41.8z M46.5,53.5c-1.1,0-2-1.12-2-2.5 s0.9-2.5,2-2.5s2,1.12,2,2.5S47.6,53.5,46.5,53.5z M55.5,53.5c-1.1,0-2-1.12-2-2.5s0.9-2.5,2-2.5s2,1.12,2,2.5S56.6,53.5,55.5,53.5 z"/><path fill="#472b29" d="M46.5,54c-1.379,0-2.5-1.346-2.5-3s1.121-3,2.5-3s2.5,1.346,2.5,3S47.879,54,46.5,54z M46.5,49 c-0.827,0-1.5,0.897-1.5,2s0.673,2,1.5,2s1.5-0.897,1.5-2S47.327,49,46.5,49z"/><path fill="#472b29" d="M55.5,54c-1.379,0-2.5-1.346-2.5-3s1.121-3,2.5-3s2.5,1.346,2.5,3S56.879,54,55.5,54z M55.5,49 c-0.827,0-1.5,0.897-1.5,2s0.673,2,1.5,2s1.5-0.897,1.5-2S56.327,49,55.5,49z"/><path fill="#472b29" d="M43.5,43.8c-0.169,0-0.335-0.086-0.429-0.243c-0.143-0.237-0.065-0.544,0.172-0.686 C43.37,42.794,46.414,41,51,41s7.63,1.794,7.757,1.871c0.237,0.142,0.313,0.448,0.172,0.685c-0.142,0.236-0.448,0.314-0.686,0.173 C58.214,43.711,55.295,42,51,42c-4.312,0-7.214,1.711-7.243,1.729C43.677,43.777,43.588,43.8,43.5,43.8z"/><path fill="#472b29" d="M51,58c-5.204,0-8.652-2.491-8.796-2.597c-0.223-0.164-0.271-0.476-0.107-0.698 c0.164-0.223,0.476-0.27,0.699-0.108C42.828,54.621,46.139,57,51,57c4.879,0,8.171-2.379,8.204-2.403 c0.221-0.163,0.534-0.117,0.699,0.106c0.163,0.223,0.115,0.536-0.107,0.699C59.652,55.509,56.204,58,51,58z"/><path fill="#472b29" d="M44.8,60c-4.61,0-7.57-3.734-7.694-3.893C37.037,56.019,37,55.911,37,55.8 c0-4.438,1.979-13.015,4.235-14.424c0.109-0.066,2.571-1.533,6.104-1.972c0.234-0.023,0.454,0.107,0.532,0.328l0.664,1.857 c0.093,0.26-0.042,0.546-0.303,0.639c-0.26,0.094-0.545-0.043-0.639-0.302l-0.527-1.475c-3.103,0.469-5.286,1.764-5.309,1.777 c-1.592,0.995-3.705,8.556-3.757,13.392c0.533,0.615,3.016,3.25,6.537,3.375l1.633-2.408c0.156-0.228,0.466-0.288,0.694-0.133 c0.229,0.155,0.288,0.466,0.134,0.694l-1.785,2.632C45.12,59.918,44.966,60,44.8,60z"/><path fill="#472b29" d="M57.2,60c-0.166,0-0.32-0.082-0.414-0.219l-1.785-2.632c-0.154-0.229-0.095-0.54,0.134-0.694 c0.229-0.156,0.539-0.096,0.694,0.133l1.633,2.408c3.521-0.126,6.004-2.76,6.537-3.375c-0.052-4.835-2.165-12.397-3.764-13.396 c-0.017-0.009-2.2-1.304-5.302-1.773l-0.527,1.475c-0.093,0.259-0.377,0.396-0.639,0.302c-0.261-0.093-0.396-0.379-0.303-0.639 l0.664-1.857c0.078-0.221,0.303-0.354,0.532-0.328c3.532,0.439,5.994,1.906,6.097,1.968C63.021,42.785,65,51.362,65,55.8 c0,0.111-0.037,0.219-0.105,0.307C64.771,56.266,61.811,60,57.2,60z"/></g></svg>